# Blender v2.65 (sub 0) OBJ File: ''
# www.blender.org
mtllib skybox_cube.mtl
o skybox_cube
v 2.000000 -2.000000 -2.000000
v 2.000000 -2.000000 2.000000
v -2.000000 -2.000000 2.000000
v -1.999999 -2.000000 -2.000001
v 2.000001 2.000000 -1.999999
v 1.999999 2.000000 2.000001
v -2.000001 2.000000 1.999999
v -2.000000 2.000000 -2.000000
vt 0.261934 0.000000
vt 0.497959 0.000000
vt 0.494321 0.335463
vt 0.258296 0.335463
vt 0.499672 0.997716
vt 0.250783 0.997550
vt 0.250908 0.666472
vt 0.499797 0.666638
vt 0.760349 0.335946
vt 0.996264 0.335946
vt 0.996264 0.661569
vt 0.760349 0.661569
vt 0.002702 0.334999
vt 0.247874 0.334999
vt 0.247874 0.662517
vt 0.002702 0.662517
vt 0.248500 0.336966
vt 0.500392 0.336966
vt 0.500392 0.660550
vt 0.248500 0.660550
vt 0.500004 0.334694
vt 0.759980 0.334694
vt 0.759980 0.660455
vt 0.500004 0.660455
vn -0.000000 1.000000 0.000000
vn 0.000000 -1.000000 -0.000000
vn -1.000000 -0.000000 -0.000000
vn 0.000000 -0.000000 -1.000000
vn 1.000000 0.000000 0.000000
vn -0.000000 -0.000000 1.000000
usemtl _skybox_texture.jpg
s off
f 1/1/1 4/2/1 3/3/1
f 1/1/1 3/3/1 2/4/1
f 5/5/2 6/6/2 7/7/2
f 5/5/2 7/7/2 8/8/2
f 1/9/3 2/10/3 6/11/3
f 1/9/3 6/11/3 5/12/3
f 2/13/4 3/14/4 7/15/4
f 2/13/4 7/15/4 6/16/4
f 3/17/5 4/18/5 8/19/5
f 3/17/5 8/19/5 7/20/5
f 4/21/6 1/22/6 5/23/6
f 4/21/6 5/23/6 8/24/6
